<svg width="231" height="26" viewBox="0 0 231 26" fill="none" xmlns="http://www.w3.org/2000/svg">
<g clip-path="url(#clip0_15306_54109)">
<path d="M170.329 9.80985L169.403 10.2806C169.059 10.4562 168.775 10.73 168.586 11.0667C168.397 11.4033 168.312 11.7882 168.341 12.1731C168.361 12.4465 168.372 12.7236 168.372 13.0003C168.371 14.9847 167.822 16.9305 166.785 18.6224C165.748 20.3143 164.262 21.6862 162.494 22.5872C160.726 23.4881 158.743 23.8832 156.765 23.7278C154.787 23.5724 152.89 22.873 151.284 21.7073L153.185 20.7386L153.292 20.6809C154.633 21.4326 156.147 21.8211 157.684 21.8069C159.221 21.7927 160.727 21.3763 162.054 20.5999C163.38 19.8234 164.481 18.7134 165.246 17.3802C166.011 16.0471 166.414 14.5372 166.415 13.0003C166.415 12.6131 166.39 12.226 166.34 11.8421L151.531 19.387L148.468 20.9485L144.887 22.7727V20.5755L148.492 18.7386L150.245 17.844L170.329 7.61747V9.80985ZM219.107 9.10575C222.263 9.10582 223.602 10.5467 223.58 13.7444L223.56 16.3372C223.538 18.2358 223.621 19.5106 223.851 20.5794H221.929C221.847 20.0678 221.798 19.5512 221.782 19.0335C221.093 20.2055 219.944 20.8508 217.938 20.8509C215.827 20.8509 214.071 19.6803 214.07 17.6116C214.07 14.9529 217.08 14.1631 221.678 13.6604V13.3899C221.678 11.3212 220.55 10.6527 219.128 10.6526C217.54 10.6526 216.642 11.4886 216.558 12.888H214.593C214.76 10.4639 216.934 9.10575 219.107 9.10575ZM182.632 5.15262C185.366 5.15262 187.773 6.38421 188.38 9.29032H186.31C185.808 7.55651 184.055 6.95048 182.548 6.95048C181.375 6.95049 179.329 7.47249 179.329 9.16532C179.329 10.5033 180.379 11.1713 181.806 11.4856L183.556 11.8831C185.876 12.3847 188.655 13.2627 188.655 16.3128C188.655 19.26 185.901 20.8489 182.887 20.8489C179.313 20.8488 177.056 18.889 176.659 15.8753H178.754C179.151 17.9644 180.572 19.0511 182.934 19.0511C185.191 19.051 186.465 18.0082 186.465 16.5013C186.465 14.8922 185.106 14.2656 183.204 13.8265L181.315 13.429C179.225 12.9694 177.156 11.7983 177.156 9.29032C177.156 6.38638 180.186 5.15264 182.632 5.15262ZM200.581 9.14481C204.029 9.14494 206.056 12.0079 205.826 15.5813H197.174C197.236 18.0054 198.992 19.1761 200.644 19.1761C202.316 19.176 203.236 18.4233 203.716 17.3157H205.68C205.178 19.2392 203.382 20.8488 200.644 20.8489C197.09 20.8489 195.126 18.2987 195.126 14.9759C195.126 11.4054 197.509 9.14481 200.581 9.14481ZM230.43 9.27177C230.618 9.2691 230.807 9.27598 230.994 9.29227V11.3245C230.642 11.2687 230.285 11.2406 229.928 11.2405C228.172 11.2406 227.294 12.1769 227.294 14.6849V20.5784H225.392V9.33427H227.253V11.2981C227.817 10.0248 228.945 9.3342 230.43 9.27177ZM192.742 9.33329H194.873V10.8597H192.742V17.5266C192.742 18.6966 192.825 18.9895 193.912 18.9895H194.873V20.5774H193.494C191.342 20.5774 190.84 20.0969 190.84 17.7561V10.8597H189.062V9.33329H190.84V6.512H192.742V9.33329ZM209.006 20.5755H207.104V5.41532H209.006V20.5755ZM212.809 5.41532V20.5755H210.906V5.41532H212.809ZM221.824 15.1653C218.375 15.5001 216.182 16.0228 216.182 17.5696C216.182 18.6361 216.996 19.3459 218.354 19.346C220.132 19.346 221.824 18.5305 221.824 15.8772V15.1653ZM152.718 3.41044C154.486 2.50884 156.469 2.11387 158.448 2.26884C160.427 2.42383 162.324 3.12253 163.931 4.28837L163.669 4.42216L161.915 5.31571C160.575 4.56722 159.062 4.18169 157.527 4.19755C155.992 4.21346 154.488 4.63033 153.163 5.40653C151.838 6.18277 150.74 7.29175 149.976 8.62333C149.211 9.95488 148.808 11.4631 148.806 12.9983C148.806 13.383 148.831 13.7673 148.881 14.1487L163.674 6.61356L166.737 5.05302L170.329 3.22098V5.41923L166.707 7.26493L164.954 8.15751L149.359 16.1038L148.49 16.5462L147.608 16.9954L144.887 18.3831V16.1839L145.812 15.7122C146.155 15.5368 146.44 15.2636 146.629 14.927C146.818 14.5904 146.904 14.2056 146.875 13.8206C146.854 13.5487 146.844 13.2753 146.844 13.0013C146.844 11.0165 147.392 9.06976 148.429 7.37723C149.465 5.6849 150.95 4.31198 152.718 3.41044ZM200.581 10.7747C198.908 10.7747 197.362 11.691 197.194 13.9515H203.819C203.757 12.3638 202.608 10.7748 200.581 10.7747Z" fill="black"/>
</g>
<path d="M130.544 25.0782L129.531 25.0782L129.531 0.921875L130.544 0.921875L130.544 25.0782Z" fill="black"/>
<g clip-path="url(#clip1_15306_54109)">
<path d="M33.5619 5.87598H37.2671L41.1806 15.4261H41.347L45.2605 5.87598H48.9657V20.0891H46.0503V10.8384H45.9329L42.254 20.0208H40.2683L36.5894 10.8051H36.4721V20.0909H33.5566V5.87598H33.5619Z" fill="black"/>
<path d="M56.2061 20.2975C55.1099 20.2975 54.1661 20.0751 53.3782 19.6286C52.5885 19.1821 51.9826 18.5482 51.5571 17.727C51.1316 16.9058 50.918 15.9322 50.918 14.808C50.918 13.7119 51.1298 12.7488 51.5571 11.9206C51.9826 11.0923 52.5832 10.4462 53.3589 9.98394C54.1346 9.52166 55.0434 9.29053 56.0905 9.29053C56.7944 9.29053 57.4493 9.40259 58.0587 9.62673C58.6663 9.85086 59.1986 10.1871 59.6556 10.6371C60.1109 11.0853 60.4663 11.6492 60.7202 12.3268C60.9741 13.0045 61.102 13.7977 61.102 14.703V15.5154H52.0999V13.6839H58.3178C58.3178 13.2584 58.225 12.8819 58.0394 12.5527C57.8538 12.2235 57.5982 11.9661 57.2725 11.7787C56.9468 11.5914 56.5686 11.4986 56.1378 11.4986C55.6895 11.4986 55.292 11.6019 54.9471 11.8068C54.6021 12.0134 54.3325 12.2883 54.1381 12.6332C53.9438 12.9782 53.8439 13.3617 53.8404 13.7819V15.5242C53.8404 16.0513 53.9385 16.5083 54.1346 16.8918C54.3307 17.2752 54.6091 17.5712 54.9716 17.7795C55.3323 17.9879 55.7596 18.0912 56.2551 18.0912C56.5843 18.0912 56.8837 18.0457 57.1569 17.9529C57.4301 17.8601 57.6629 17.7218 57.8573 17.5361C58.0517 17.3505 58.2005 17.1246 58.3021 16.8567L61.0372 17.0371C60.8989 17.6937 60.6152 18.2663 60.1879 18.7549C59.7607 19.2434 59.2091 19.6216 58.5367 19.893C57.8643 20.1644 57.0851 20.2975 56.2061 20.2975Z" fill="black"/>
<path d="M62.9004 20.0891V9.42883H65.7668V11.2884H65.8771C66.0715 10.6265 66.3972 10.1257 66.856 9.78604C67.3147 9.44634 67.8418 9.27649 68.4389 9.27649C68.5877 9.27649 68.7471 9.28524 68.9169 9.30451C69.0885 9.32377 69.2391 9.34828 69.3687 9.38155V12.0046C69.2304 11.9626 69.0378 11.9258 68.7926 11.8943C68.5475 11.8628 68.3233 11.8453 68.1202 11.8453C67.686 11.8453 67.2972 11.9398 66.9575 12.1272C66.6178 12.3145 66.3499 12.5754 66.1521 12.9081C65.9559 13.2408 65.8579 13.6261 65.8579 14.0603V20.0909H62.9004V20.0891Z" fill="black"/>
<path d="M72.0991 8.05607C71.6596 8.05607 71.2831 7.90898 70.9679 7.61481C70.6527 7.32064 70.4951 6.96868 70.4951 6.55719C70.4951 6.1492 70.6527 5.79899 70.9679 5.50657C71.2831 5.21239 71.6578 5.06531 72.0921 5.06531C72.5368 5.06531 72.915 5.21239 73.2267 5.50657C73.5384 5.80074 73.6943 6.15095 73.6943 6.55719C73.6943 6.96868 73.5384 7.32239 73.2267 7.61481C72.9133 7.90898 72.5386 8.05607 72.0991 8.05607ZM70.6072 20.0892V9.42888H73.5629V20.0892H70.6072Z" fill="black"/>
<path d="M79.6651 20.2625C78.8561 20.2625 78.1224 20.0523 77.4693 19.6338C76.8144 19.2153 76.2961 18.5972 75.9144 17.7812C75.5327 16.9653 75.3418 15.9619 75.3418 14.773C75.3418 13.5508 75.5379 12.5352 75.9319 11.7227C76.3259 10.9102 76.8494 10.3026 77.5043 9.8981C78.1592 9.49361 78.8771 9.29049 79.6598 9.29049C80.2569 9.29049 80.7542 9.3903 81.1552 9.59167C81.5562 9.79304 81.8784 10.0434 82.127 10.3411C82.3739 10.6388 82.5631 10.933 82.6926 11.2184H82.7819V5.87598H85.7307V20.0891H82.8152V18.3819H82.6909C82.5525 18.6778 82.3564 18.9702 82.1043 19.2591C81.8521 19.548 81.5264 19.7879 81.1255 19.977C80.7262 20.1679 80.2377 20.2625 79.6651 20.2625ZM80.6019 17.9108C81.0782 17.9108 81.4827 17.7795 81.8136 17.5186C82.1446 17.2577 82.3985 16.89 82.5771 16.4189C82.7557 15.9462 82.845 15.3946 82.845 14.7607C82.845 14.1268 82.7574 13.577 82.5806 13.1095C82.4055 12.642 82.1498 12.2813 81.8171 12.0274C81.4844 11.7735 81.0799 11.6456 80.6019 11.6456C80.1169 11.6456 79.7071 11.777 79.3744 12.0414C79.0417 12.3058 78.7896 12.67 78.618 13.1375C78.4464 13.605 78.3606 14.1461 78.3606 14.7607C78.3606 15.3806 78.4481 15.9287 78.6215 16.4014C78.7948 16.876 79.047 17.2454 79.3779 17.5116C79.7071 17.7777 80.1151 17.9108 80.6019 17.9108Z" fill="black"/>
<path d="M89.4936 8.05607C89.0541 8.05607 88.6776 7.90898 88.3624 7.61481C88.0472 7.32064 87.8896 6.96868 87.8896 6.55719C87.8896 6.1492 88.0472 5.79899 88.3624 5.50657C88.6776 5.21239 89.0523 5.06531 89.4866 5.06531C89.9314 5.06531 90.3096 5.21239 90.6213 5.50657C90.9329 5.80074 91.0888 6.15095 91.0888 6.55719C91.0888 6.96868 90.9329 7.32239 90.6213 7.61481C90.3096 7.90898 89.9331 8.05607 89.4936 8.05607ZM88.0017 20.0892V9.42888H90.9575V20.0892H88.0017Z" fill="black"/>
<path d="M96.1541 20.2906C95.4747 20.2906 94.8671 20.1715 94.3365 19.9333C93.8042 19.6952 93.3839 19.3415 93.0775 18.8722C92.7711 18.4029 92.6152 17.8163 92.6152 17.1124C92.6152 16.5206 92.7238 16.0233 92.9409 15.6206C93.1581 15.2178 93.454 14.8939 93.8287 14.6487C94.2034 14.4036 94.6307 14.218 95.1087 14.0937C95.5867 13.9693 96.091 13.88 96.6181 13.8292C97.238 13.7645 97.737 13.7032 98.117 13.6454C98.497 13.5876 98.7719 13.5001 98.9435 13.3845C99.1151 13.2689 99.2009 13.0973 99.2009 12.8714V12.8294C99.2009 12.3899 99.0625 12.0502 98.7876 11.8086C98.5127 11.5687 98.1222 11.4478 97.6179 11.4478C97.0856 11.4478 96.6619 11.5652 96.3484 11.798C96.0333 12.0309 95.8249 12.3251 95.7233 12.6753L92.9882 12.4529C93.1265 11.8051 93.3997 11.2447 93.8077 10.7702C94.2157 10.2957 94.741 9.9297 95.3871 9.67405C96.0333 9.41664 96.7809 9.28882 97.6319 9.28882C98.2238 9.28882 98.7911 9.35886 99.3357 9.49719C99.8785 9.63552 100.364 9.8509 100.786 10.1433C101.208 10.4357 101.544 10.8087 101.789 11.264C102.034 11.7193 102.157 12.2638 102.157 12.8977V20.0874H99.3532V18.6113H99.2692C99.0976 18.944 98.8682 19.2364 98.5828 19.4886C98.2956 19.7407 97.9506 19.9368 97.5479 20.0787C97.1452 20.2205 96.6811 20.2906 96.1541 20.2906ZM96.9998 18.2506C97.4341 18.2506 97.8193 18.1631 98.152 17.9897C98.4847 17.8163 98.7456 17.5817 98.9365 17.2858C99.1256 16.9899 99.2201 16.6537 99.2201 16.2789V15.1478C99.1273 15.2073 99.0013 15.2616 98.8419 15.3106C98.6826 15.3596 98.5022 15.4034 98.3043 15.4419C98.1047 15.4805 97.9069 15.5155 97.7072 15.5453C97.5076 15.575 97.3273 15.6013 97.1662 15.6258C96.8195 15.6766 96.5165 15.7571 96.2574 15.8692C95.9982 15.9795 95.7969 16.1301 95.6533 16.3175C95.5097 16.5048 95.4379 16.7377 95.4379 17.0144C95.4379 17.4171 95.585 17.7235 95.8792 17.9337C96.1733 18.1455 96.5463 18.2506 96.9998 18.2506Z" fill="black"/>
<path d="M107.305 13.9273V20.0909H104.35V9.42886H107.167V11.3095H107.291C107.528 10.6896 107.923 10.1976 108.479 9.8351C109.034 9.47263 109.708 9.29053 110.497 9.29053C111.238 9.29053 111.883 9.45337 112.434 9.77556C112.984 10.0995 113.413 10.5618 113.718 11.1606C114.022 11.7595 114.176 12.4739 114.176 13.3021V20.0891H111.221V13.8292C111.226 13.1761 111.06 12.6665 110.722 12.2988C110.384 11.9311 109.92 11.7472 109.326 11.7472C108.929 11.7472 108.578 11.833 108.275 12.0046C107.972 12.1762 107.736 12.4249 107.568 12.7506C107.396 13.0763 107.311 13.4685 107.305 13.9273Z" fill="black"/>
<path d="M22.0128 3.70998C22.4261 3.97088 22.4278 4.41214 22.4243 4.95671C22.4208 5.55382 22.4243 8.60237 22.4243 9.10666C22.4243 9.61096 22.3718 9.71602 21.8815 10.061C21.3912 10.4059 12.5205 16.4522 12.1107 16.7429C11.701 17.0336 11.5136 17.2069 11.2615 17.2069C11.0093 17.2069 10.7712 17.0616 10.4665 16.8497C10.1601 16.6379 1.03897 10.4725 0.522414 10.0487C0.00585938 9.62497 0.00585938 9.58469 0.00585938 8.64264C0.00585938 7.70058 0.00585938 5.07579 0.00585938 4.70457C0.00585938 4.33335 0.00585938 3.97614 0.336805 3.75025C0.66775 3.52437 0.879625 3.60492 1.55727 4.05493C2.23492 4.50495 9.60502 9.53041 10.2144 9.9419C10.8237 10.3534 10.9428 10.4725 11.2352 10.4725C11.5277 10.4725 11.9251 10.1153 12.2823 9.87537C12.6396 9.63547 20.5945 4.21428 21.02 3.92185C21.4455 3.62943 21.7344 3.53488 22.0128 3.70998Z" fill="black"/>
<path d="M22.1015 13.9132C22.5603 14.2302 22.4184 14.6574 22.4184 15.3368C22.4184 16.018 22.4027 20.3833 22.4027 20.8578C22.4027 21.3324 22.513 21.8699 22.1645 22.1869C21.8161 22.5038 21.4729 22.3865 21.0579 22.0923C20.4958 21.6948 17.2056 19.1908 16.8589 18.9334C16.5105 18.676 16.1515 18.4729 16.1848 18.0474C16.218 17.6202 16.4649 17.4748 16.8134 17.2279C17.1618 16.981 20.6306 14.3422 20.9441 14.1409C21.2575 13.9377 21.676 13.6208 22.1015 13.9132Z" fill="black"/>
<path d="M0.337642 13.9132C-0.121129 14.2302 0.0207051 14.6574 0.0207051 15.3368C0.0207051 16.018 0.0364644 20.3833 0.0364644 20.8578C0.0364644 21.3324 -0.0738506 21.8699 0.274605 22.1869C0.62306 22.5038 0.966263 22.3865 1.38126 22.0923C1.94334 21.6948 5.23353 19.1908 5.58023 18.9334C5.92869 18.676 6.28765 18.4729 6.25438 18.0474C6.22111 17.6202 5.97422 17.4748 5.62576 17.2279C5.27731 16.981 1.80851 14.3422 1.49507 14.1409C1.17989 13.9377 0.761392 13.6208 0.337642 13.9132Z" fill="black"/>
</g>
<defs>
<clipPath id="clip0_15306_54109">
<rect width="86.1135" height="21.5284" fill="white" transform="translate(144.887 2.23584)"/>
</clipPath>
<clipPath id="clip1_15306_54109">
<rect width="114.176" height="18.7553" fill="white" transform="translate(0 3.62244)"/>
</clipPath>
</defs>
</svg>
